
nColumns=19
nRows=55
DataType=double
version=3
OpenSimVersion=4.4-2022-10-11-798caa840
endheader
time	ground_force_calcn_r_vx	ground_force_calcn_r_vy	ground_force_calcn_r_vz	ground_force_calcn_r_px	ground_force_calcn_r_py	ground_force_calcn_r_pz	ground_force_calcn_r_mx	ground_force_calcn_r_my	ground_force_calcn_r_mz	ground_force_calcn_l_vx	ground_force_calcn_l_vy	ground_force_calcn_l_vz	ground_force_calcn_l_px	ground_force_calcn_l_py	ground_force_calcn_l_pz	ground_force_calcn_l_mx	ground_force_calcn_l_my	ground_force_calcn_l_mz
0	16.1708	151.683	6.95347	0.222858	0	-0.176011	0.00170191	0.015964	0.000731825	0	0	0	0	0	0	0	0	0
0.01	7.15932	183.079	7.17997	0.227918	0	-0.176367	0.0008638	0.0220892	0.000866291	0	0	0	0	0	0	0	0	0
0.02	-2.81978	218.544	7.03059	0.233299	0	-0.176537	-0.000422902	0.0327766	0.00105443	0	0	0	0	0	0	0	0	0
0.03	-13.4456	257.426	6.38757	0.238232	0	-0.176489	-0.00225364	0.0431477	0.00107063	0	0	0	0	0	0	0	0	0
0.04	-24.3587	298.756	5.14538	0.242804	0	-0.176272	-0.00415044	0.0509045	0.000876714	0	0	0	0	0	0	0	0	0
0.05	-35.1846	341.285	3.23452	0.247094	0	-0.175928	-0.00585149	0.0567586	0.000537928	0	0	0	0	0	0	0	0	0
0.06	-45.5408	383.631	0.649405	0.251158	0	-0.175496	-0.0076864	0.0647494	0.000109607	0	0	0	0	0	0	0	0	0
0.07000000000000001	-55.0654	424.449	-2.53151	0.255035	0	-0.175017	-0.0105808	0.0815574	-0.000486428	0	0	0	0	0	0	0	0	0
0.08	-63.4438	462.594	-6.15104	0.258748	0	-0.174528	-0.0156627	0.114203	-0.00151853	0	0	0	0	0	0	0	0	0
0.09	-70.4491	497.246	-10.0115	0.262309	0	-0.174061	-0.023667	0.167047	-0.0033633	0	0	0	0	0	0	0	0	0
0.1	-75.9637	527.957	-13.9071	0.26573	0	-0.17364	-0.0346544	0.240853	-0.00634438	0	0	0	0	0	0	0	0	0
0.11	-79.96129999999999	554.5839999999999	-17.635	0.269021	0	-0.173289	-0.0481389	0.333875	-0.0106167	0	0	0	0	0	0	0	0	0
0.12	-82.4828	577.164	-21.0092	0.27219	0	-0.173023	-0.0631562	0.441928	-0.0160865	0	0	0	0	0	0	0	0	0
0.13	-83.6206	595.821	-23.8836	0.275244	0	-0.172851	-0.07832989999999999	0.558123	-0.0223724	0	0	0	0	0	0	0	0	0
0.14	-83.50369999999999	610.713	-26.1645	0.278196	0	-0.172776	-0.0921244	0.6737610000000001	-0.0288657	0	0	0	0	0	0	0	0	0
0.15	-82.2851	621.997	-27.8144	0.281062	0	-0.172796	-0.103132	0.7795800000000001	-0.0348612	0	0	0	0	0	0	0	0	0
0.16	-80.1336	629.824	-28.8474	0.283866	0	-0.172903	-0.110299	0.866911	-0.0397065	0	0	0	0	0	0	0	0	0
0.17	-77.2261	634.347	-29.3165	0.286637	0	-0.173084	-0.113056	0.928659	-0.0429182	0	0	0	0	0	0	0	0	0
0.18	-73.74160000000001	635.7329999999999	-29.2971	0.289407	0	-0.173327	-0.111351	0.959966	-0.044239	0	0	0	0	0	0	0	0	0
0.19	-69.8518	634.1900000000001	-28.8692	0.292212	0	-0.173616	-0.105566	0.95844	-0.0436295	0	0	0	0	0	0	0	0	0
0.2	-65.7128	629.98	-28.1057	0.295086	0	-0.173942	-0.0963606	0.923796	-0.0412138	0	0	0	0	0	0	0	0	0
0.21	-61.4591	623.424	-27.0679	0.298062	0	-0.174292	-0.0845008	0.8571530000000001	-0.0372159	0	0	0	0	0	0	0	0	0
0.22	-57.1997	614.89	-25.8088	0.301172	0	-0.174654	-0.07071719999999999	0.760202	-0.031908	0	0	0	0	0	0	0	0	0
0.23	-53.017	604.771	-24.378	0.304439	0	-0.175016	-0.055627	0.634544	-0.0255782	0	0	0	0	0	0	0	0	0
0.24	-48.9668	593.466	-22.8282	0.307884	0	-0.175367	-0.0397121	0.481301	-0.0185137	0	0	0	0	0	0	0	0	0
0.25	-45.0799	581.371	-21.2187	0.31152	0	-0.175694	-0.0233409	0.301014	-0.0109863	0	0	0	0	0	0	0	0	0
0.26	-41.3652	568.8680000000001	-19.6145	0.315354	0	-0.175986	-0.00682114	0.0938065	-0.00323443	0	0	0	0	0	0	0	0	0
0.27	-37.8133	556.3390000000001	-18.0815	0.319385	0	-0.176232	0.00953435	-0.140277	0.00455912	0	0	0	0	0	0	0	0	0
0.28	-34.4011	544.17	-16.6812	0.323607	0	-0.176425	0.0253535	-0.401051	0.012294	0	0	0	0	0	0	0	0	0
0.29	-31.0954	532.758	-15.4662	0.328004	0	-0.176565	0.0401567	-0.688006	0.0199732	0	0	0	0	0	0	0	0	0
0.3	-27.8562	522.518	-14.479	0.332548	0	-0.176655	0.0533115	-1	0.0277101	0	0	0	0	0	0	0	0	0
0.31	-24.6393	513.87	-13.7509	0.337203	0	-0.176703	0.0640136	-1.33505	0.0357253	0	0	0	0	0	0	0	0	0
0.32	-21.3985	507.223	-13.3028	0.341918	0	-0.176723	0.07130309999999999	-1.69015	0.044327	0	0	0	0	0	0	0	0	0
0.33	-18.0881	502.953	-13.1447	0.346632	0	-0.176736	0.0741299	-2.06124	0.0538707	0	0	0	0	0	0	0	0	0
0.34	-14.6647	501.367	-13.2744	0.35128	0	-0.176759	0.071464	-2.44327	0.0646888	0	0	0	0	0	0	0	0	0
0.35	-11.0885	502.675	-13.6742	0.355799	0	-0.176814	0.0624399	-2.83058	0.0769999	0	0	0	0	0	0	0	0	0
0.36	-7.32498	506.965	-14.3096	0.36013	0	-0.176919	0.0464886	-3.21749	0.09081690000000001	0	0	0	0	0	0	0	0	0
0.37	-3.34518	514.192	-15.1284	0.364231	0	-0.177086	0.0234128	-3.59882	0.105883	0	0	0	0	0	0	0	0	0
0.38	0.8732	524.1849999999999	-16.0658	0.368076	0	-0.177325	-0.00661333	-3.97	0.121677	0	0	0	0	0	0	0	0	0
0.39	5.34552	536.652	-17.0524	0.371652	0	-0.177637	-0.0430985	-4.32678	0.137486	0	0	0	0	0	0	0	0	0
0.4	10.0799	551.199	-18.0226	0.374964	0	-0.178018	-0.08529970000000001	-4.66446	0.152514	0	0	0	0	0	0	0	0	0
0.41	15.0758	567.332	-18.9201	0.378025	0	-0.17846	-0.132267	-4.97744	0.165994	0	0	0	0	0	0	0	0	0
0.42	20.3235	584.472	-19.7002	0.380856	0	-0.178947	-0.182865	-5.25892	0.177257	0	0	0	0	0	0	0	0	0
0.43	25.8026	601.953	-20.3305	0.383478	0	-0.179465	-0.235795	-5.50089	0.185789	0	0	0	0	0	0	0	0	0
0.44	31.4819	619.0359999999999	-20.7892	0.385919	0	-0.179996	-0.289612	-5.69472	0.191247	0	0	0	0	0	0	0	0	0
0.45	37.3186	634.92	-21.062	0.388199	0	-0.180527	-0.342782	-5.83192	0.193461	0	0	0	0	0	0	0	0	0
0.46	43.2568	648.763	-21.1395	0.390343	0	-0.181042	-0.39373	-5.90514	0.192415	0	0	0	0	0	0	0	0	0
0.47	49.2234	659.716	-21.013	0.392368	0	-0.181534	-0.440899	-5.90915	0.188215	0	0	0	0	0	0	0	0	0
0.48	55.1231	666.956	-20.6721	0.39429	0	-0.181991	-0.482808	-5.84169	0.181062	0	0	0	0	0	0	0	0	0
0.49	60.8338	669.72	-20.1042	0.396124	0	-0.182407	-0.518116	-5.70394	0.171226	0	0	0	0	0	0	0	0	0
0.5	66.2064	667.342	-19.2968	0.397882	0	-0.182777	-0.545695	-5.50046	0.159051	0	0	0	0	0	0	0	0	0
0.51	71.06780000000001	659.283	-18.2418	0.399576	0	-0.183095	-0.564704	-5.23865	0.144949	7.20736	33.9817	-5.17907	0.804822	0	-0.257999	0.115621	0.545137	-0.0830829
0.52	75.2281	645.154	-16.9398	0.401217	0	-0.183357	-0.574631	-4.92801	0.129395	6.7772	54.8004	-5.74298	0.827884	0	-0.27018	0.0694935	0.561924	-0.0588886
0.53	78.4896	624.7430000000001	-15.4037	0.402817	0	-0.183557	-0.575323	-4.57932	0.112908	5.53474	80.155	-6.24537	0.8416169999999999	0	-0.276336	0.03824	0.553798	-0.0431499
0.54	80.6587	598.043	-13.6612	0.404391	0	-0.183693	-0.566981	-4.20387	0.0960298	3.22776	110.07	-6.62281	0.851164	0	-0.279966	0.015699	0.535355	-0.0322117
